<?xml version="1.0" encoding="utf-8"?>
<!-- created with bpmn-js / http://bpmn.io -->
<!DOCTYPE svg PUBLIC "-//W3C//DTD SVG 1.1//EN" "http://www.w3.org/Graphics/SVG/1.1/DTD/svg11.dtd">
<svg xmlns="http://www.w3.org/2000/svg" xmlns:xlink="http://www.w3.org/1999/xlink" width="512" height=" 648.749267578125" viewBox="263 -55.749267578125 512 508.749267578125" version="1.1"><defs><marker id="activity-black-#000000-4fcayopf07r6r9g6nt8dw376j" viewBox="0 0 20 20" refX="11" refY="10" markerWidth="10" markerHeight="10" orient="auto"><path d="M 1 5 L 11 10 L 1 15 Z" style="fill: rgb(0, 0, 0); stroke-width: 1px; stroke-linecap: round; stroke-dasharray: 10000px, 1px; stroke: rgb(0, 0, 0);"/></marker></defs><g class="djs-group"><g class="djs-element djs-shape" style = "display:block" transform="translate(273 -65.749267578125)"><g class="djs-visual"><text lineHeight="1.2" class="djs-label" style="font-family: Arial, sans-serif; font-size: 30; font-weight: normal; fill: rgb(0, 0, 0);"><tspan x="8" y="55" font-size="30">Museum TIcket System</tspan></text><text lineHeight="1.2" class="djs-label" style="font-family: Arial, sans-serif; font-size: 12; font-weight: normal; fill: rgb(0, 0, 0);"><tspan x="8" y="75" font-size="12"></tspan></text></g></g></g><g class="djs-group"><g class="djs-element djs-shape" data-element-id="shape_3273" transform="matrix(1, 0, 0, 1, 269, 175)" style="display: block;"><g class="djs-visual"><svg viewBox="0 0 24 26" xmlns="http://www.w3.org/2000/svg" width="75" height="75"><path d="M12 5.9c1.16 0 2.1.94 2.1 2.1s-.94 2.1-2.1 2.1S9.9 9.16 9.9 8s.94-2.1 2.1-2.1m0 9c2.97 0 6.1 1.46 6.1 2.1v1.1H5.9V17c0-.64 3.13-2.1 6.1-2.1M12 4C9.79 4 8 5.79 8 8s1.79 4 4 4 4-1.79 4-4-1.79-4-4-4zm0 9c-2.67 0-8 1.34-8 4v3h16v-3c0-2.66-5.33-4-8-4z"/><path d="M0 0h24v24H0z" fill="none"/></svg><text style="font-family: Arial, sans-serif; font-size: 12px; font-weight: normal; fill: rgb(0, 0, 0);" lineHeight="1.2" class="djs-label"><tspan x="12.5" y="75">customer</tspan></text></g><rect x="0" y="0" width="75" height="75" style="fill: none; stroke-opacity: 0; stroke: white; stroke-width: 15px;" class="djs-hit"/><rect x="-6" y="-6" width="87" height="87" style="fill: none;" class="djs-outline"/></g></g><g class="djs-group"><g class="djs-element djs-shape" data-element-id="shape_4598" transform="matrix(1, 0, 0, 1, 694, 175)" style="display: block;"><g class="djs-visual"><svg viewBox="0 0 24 26" xmlns="http://www.w3.org/2000/svg" width="75" height="75"><path d="M20,18c1.1,0,2-0.9,2-2V6c0-1.1-0.9-2-2-2H4C2.9,4,2,4.9,2,6v10c0,1.1,0.9,2,2,2H0v2h24v-2H20z M4,6h16v10H4V6z"/></svg><text style="font-family: Arial, sans-serif; font-size: 12px; font-weight: normal; fill: rgb(0, 0, 0);" lineHeight="1.2" class="djs-label"><tspan x="3" y="75">ticket system</tspan></text></g><rect x="0" y="0" width="75" height="75" style="fill: none; stroke-opacity: 0; stroke: white; stroke-width: 15px;" class="djs-hit"/><rect x="-6" y="-6" width="87" height="87" style="fill: none;" class="djs-outline"/></g></g><g class="djs-group"><g class="djs-element djs-shape" data-element-id="shape_6517" transform="matrix(1, 0, 0, 1, 475, 60)" style="display: block;"><g class="djs-visual"><svg xmlns="http://www.w3.org/2000/svg" width="48.75" height="48.75" viewBox="0 0 24 26" x="12.5" y="12.5"><path fill="none" d="M0 0h24v24H0V0z"/><path d="M8 16h8v2H8zm0-4h8v2H8zm6-10H6c-1.1 0-2 .9-2 2v16c0 1.1.89 2 1.99 2H18c1.1 0 2-.9 2-2V8l-6-6zm4 18H6V4h7v5h5v11z"/></svg><text style="font-family: Arial, sans-serif; font-size: 12px; font-weight: normal; fill: rgb(0, 0, 0);" lineHeight="1.2" class="djs-label"><tspan x="1" y="74.75">see available </tspan><tspan x="20.5" y="88.75">tickets</tspan></text></g><rect x="0" y="0" width="75" height="75" style="fill: none; stroke-opacity: 0; stroke: white; stroke-width: 15px;" class="djs-hit"/><rect x="-6" y="-6" width="87" height="87" style="fill: none;" class="djs-outline"/></g></g><g class="djs-group"><g class="djs-element djs-connection" data-element-id="connection_7281" style="display: block;"><g class="djs-visual"><polyline points="335,198 475,122 " style="stroke: rgb(0, 0, 0); fill: none; stroke-width: 1.5px; stroke-linejoin: round; marker-end: url('#activity-black-#000000-4fcayopf07r6r9g6nt8dw376j');"/><text style="font-family: Courier; font-size: 150px; font-weight: normal; fill: rgb(66, 174, 187);" lineHeight="1.2" position="absolute" class="djs-labelNumber"><tspan x="354.2507268969592" y="151.25072689695918">.</tspan></text><text style="font-family: Arial, sans-serif; font-size: 11px; font-weight: normal; fill: black;" lineHeight="1.2" backgroundColor="green" position="absolute" class="djs-labelNumber"><tspan x="393.2507268969592" y="146.25072689695918">01</tspan></text></g><polyline points="335,198 475,122 " style="fill: none; stroke-opacity: 0; stroke: white; stroke-width: 15px;" class="djs-hit"/><rect x="329" y="116" width="152" height="88" style="fill: none;" class="djs-outline"/></g></g><g class="djs-group"><g class="djs-element djs-connection" data-element-id="connection_0348" style="display: block;"><g class="djs-visual"><polyline points="545,117 694,204 " style="stroke: rgb(0, 0, 0); fill: none; stroke-width: 1.5px; stroke-linejoin: round; marker-end: url('#activity-black-#000000-4fcayopf07r6r9g6nt8dw376j');"/></g><polyline points="545,117 694,204 " style="fill: none; stroke-opacity: 0; stroke: white; stroke-width: 15px;" class="djs-hit"/><rect x="539" y="111" width="161" height="99" style="fill: none;" class="djs-outline"/></g></g><g class="djs-group"><g class="djs-element djs-shape" data-element-id="shape_2740" transform="matrix(1, 0, 0, 1, 475, 175)" style="display: block;"><g class="djs-visual"><svg height="48.75" viewBox="0 0 24 26" width="48.75" xmlns="http://www.w3.org/2000/svg" x="12.5" y="12.5"><path d="M0 0h24v24H0z" fill="none"/><path d="M11 17h2v-6h-2v6zm1-15C6.48 2 2 6.48 2 12s4.48 10 10 10 10-4.48 10-10S17.52 2 12 2zm0 18c-4.41 0-8-3.59-8-8s3.59-8 8-8 8 3.59 8 8-3.59 8-8 8zM11 9h2V7h-2v2z"/></svg><text style="font-family: Arial, sans-serif; font-size: 12px; font-weight: normal; fill: rgb(0, 0, 0);" lineHeight="1.2" class="djs-label"><tspan x="0" y="74.75">queue number</tspan></text></g><rect x="0" y="0" width="75" height="75" style="fill: none; stroke-opacity: 0; stroke: white; stroke-width: 15px;" class="djs-hit"/><rect x="-6" y="-6" width="87" height="87" style="fill: none;" class="djs-outline"/></g></g><g class="djs-group"><g class="djs-element djs-connection" data-element-id="connection_1065" style="display: block;"><g class="djs-visual"><polyline points="694,213 555,213 " style="stroke: rgb(0, 0, 0); fill: none; stroke-width: 1.5px; stroke-linejoin: round; marker-end: url('#activity-black-#000000-4fcayopf07r6r9g6nt8dw376j');"/><text style="font-family: Courier; font-size: 150px; font-weight: normal; fill: rgb(66, 174, 187);" lineHeight="1.2" position="absolute" class="djs-labelNumber"><tspan x="573.5" y="209">.</tspan></text><text style="font-family: Arial, sans-serif; font-size: 11px; font-weight: normal; fill: black;" lineHeight="1.2" backgroundColor="green" position="absolute" class="djs-labelNumber"><tspan x="612.5" y="204">02</tspan></text></g><polyline points="694,213 555,213 " style="fill: none; stroke-opacity: 0; stroke: white; stroke-width: 15px;" class="djs-hit"/><rect x="549" y="207" width="151" height="12" style="fill: none;" class="djs-outline"/></g></g><g class="djs-group"><g class="djs-element djs-connection" data-element-id="connection_7075" style="display: block;"><g class="djs-visual"><polyline points="475,213 350,213 " style="stroke: rgb(0, 0, 0); fill: none; stroke-width: 1.5px; stroke-linejoin: round; marker-end: url('#activity-black-#000000-4fcayopf07r6r9g6nt8dw376j');"/></g><polyline points="475,213 350,213 " style="fill: none; stroke-opacity: 0; stroke: white; stroke-width: 15px;" class="djs-hit"/><rect x="344" y="207" width="137" height="12" style="fill: none;" class="djs-outline"/></g></g><g class="djs-group"><g class="djs-element djs-shape" data-element-id="shape_7461" transform="matrix(1, 0, 0, 1, 475, 301)" style="display: block;"><g class="djs-visual"><svg xmlns="http://www.w3.org/2000/svg" width="48.75" height="48.75" viewBox="0 0 24 26" x="12.5" y="12.5"><path fill="none" d="M0 0h24v24H0V0z"/><path d="M8 16h8v2H8zm0-4h8v2H8zm6-10H6c-1.1 0-2 .9-2 2v16c0 1.1.89 2 1.99 2H18c1.1 0 2-.9 2-2V8l-6-6zm4 18H6V4h7v5h5v11z"/></svg><text style="font-family: Arial, sans-serif; font-size: 12px; font-weight: normal; fill: rgb(0, 0, 0);" lineHeight="1.2" class="djs-label"><tspan x="12" y="74.75">buy ticket</tspan></text></g><rect x="0" y="0" width="75" height="75" style="fill: none; stroke-opacity: 0; stroke: white; stroke-width: 15px;" class="djs-hit"/><rect x="-6" y="-6" width="87" height="87" style="fill: none;" class="djs-outline"/></g></g><g class="djs-group"><g class="djs-element djs-connection" data-element-id="connection_0152" style="display: block;"><g class="djs-visual"><polyline points="339,233 475,320 " style="stroke: rgb(0, 0, 0); fill: none; stroke-width: 1.5px; stroke-linejoin: round; marker-end: url('#activity-black-#000000-4fcayopf07r6r9g6nt8dw376j');"/><text style="font-family: Courier; font-size: 150px; font-weight: normal; fill: rgb(66, 174, 187);" lineHeight="1.2" position="absolute" class="djs-labelNumber"><tspan x="351.4345477538423" y="251.1230318358949">.</tspan></text><text style="font-family: Arial, sans-serif; font-size: 11px; font-weight: normal; fill: black;" lineHeight="1.2" backgroundColor="green" position="absolute" class="djs-labelNumber"><tspan x="390.4345477538423" y="246.1230318358949">03</tspan></text></g><polyline points="339,233 475,320 " style="fill: none; stroke-opacity: 0; stroke: white; stroke-width: 15px;" class="djs-hit"/><rect x="333" y="227" width="148" height="99" style="fill: none;" class="djs-outline"/></g></g><g class="djs-group"><g class="djs-element djs-connection" data-element-id="connection_0818" style="display: block;"><g class="djs-visual"><polyline points="540,323 694,231 " style="stroke: rgb(0, 0, 0); fill: none; stroke-width: 1.5px; stroke-linejoin: round; marker-end: url('#activity-black-#000000-4fcayopf07r6r9g6nt8dw376j');"/></g><polyline points="540,323 694,231 " style="fill: none; stroke-opacity: 0; stroke: white; stroke-width: 15px;" class="djs-hit"/><rect x="534" y="225" width="166" height="104" style="fill: none;" class="djs-outline"/></g></g><g class="djs-group"><g class="djs-element djs-shape" data-element-id="shape_6469" transform="matrix(1, 0, 0, 1, 475, 421)" style="display: block;"><g class="djs-visual"><svg height="48.75" viewBox="0 0 24 26" width="48.75" xmlns="http://www.w3.org/2000/svg" x="12.5" y="12.5"><path d="M0 0h24v24H0z" fill="none"/><path d="M11 17h2v-6h-2v6zm1-15C6.48 2 2 6.48 2 12s4.48 10 10 10 10-4.48 10-10S17.52 2 12 2zm0 18c-4.41 0-8-3.59-8-8s3.59-8 8-8 8 3.59 8 8-3.59 8-8 8zM11 9h2V7h-2v2z"/></svg><text style="font-family: Arial, sans-serif; font-size: 12px; font-weight: normal; fill: rgb(0, 0, 0);" lineHeight="1.2" class="djs-label"><tspan x="23.5" y="74.75">ticket</tspan></text></g><rect x="0" y="0" width="75" height="75" style="fill: none; stroke-opacity: 0; stroke: white; stroke-width: 15px;" class="djs-hit"/><rect x="-6" y="-6" width="87" height="87" style="fill: none;" class="djs-outline"/></g></g><g class="djs-group"><g class="djs-element djs-connection" data-element-id="connection_2311" style="display: block;"><g class="djs-visual"><polyline points="732,260 732,463 559,463 " style="stroke: rgb(0, 0, 0); fill: none; stroke-width: 1.5px; stroke-linejoin: round; marker-end: url('#activity-black-#000000-4fcayopf07r6r9g6nt8dw376j');"/><text style="font-family: Courier; font-size: 150px; font-weight: normal; fill: rgb(66, 174, 187);" lineHeight="1.2" position="absolute" class="djs-labelNumber"><tspan x="594.5" y="459">.</tspan></text><text style="font-family: Arial, sans-serif; font-size: 11px; font-weight: normal; fill: black;" lineHeight="1.2" backgroundColor="green" position="absolute" class="djs-labelNumber"><tspan x="633.5" y="454">04</tspan></text></g><polyline points="732,260 732,463 559,463 " style="fill: none; stroke-opacity: 0; stroke: white; stroke-width: 15px;" class="djs-hit"/><rect x="553" y="254" width="185" height="215" style="fill: none;" class="djs-outline"/></g></g><g class="djs-group"><g class="djs-element djs-connection" data-element-id="connection_9189" style="display: block;"><g class="djs-visual"><polyline points="475,459 303,459 303,260 " style="stroke: rgb(0, 0, 0); fill: none; stroke-width: 1.5px; stroke-linejoin: round; marker-end: url('#activity-black-#000000-4fcayopf07r6r9g6nt8dw376j');"/></g><polyline points="475,459 303,459 303,260 " style="fill: none; stroke-opacity: 0; stroke: white; stroke-width: 15px;" class="djs-hit"/><rect x="297" y="254" width="184" height="211" style="fill: none;" class="djs-outline"/></g></g><g style="pointer-events: none;" class="djs-drag-group" transform="matrix(1, 0, 0, 1, 271, 31)"/><g style="pointer-events: none;" class="djs-drag-group" transform="matrix(1, 0, 0, 1, -5, -49)"/></svg>